<svg viewBox="0 0 512 512" preserveAspectRatio="xMidYMid meet" width="512" height="512">
  <path d="M454 251.848C454 227.864 434.382 208.321 410.254 208.321C398.47 208.321 387.837 213.026 379.97 220.593C350.181 201.018 309.858 188.516 265.256 186.936L289.68 110.148L355.777 125.644L355.678 126.598C355.678 146.206 371.708 162.196 391.458 162.196C411.175 162.196 427.206 146.239 427.206 126.598C427.206 106.956 411.143 91 391.425 91C376.284 91 363.38 100.442 358.18 113.701L286.948 97.0207C283.854 96.264 280.661 98.0735 279.706 101.1L252.484 186.739C205.775 187.298 163.445 199.866 132.338 220.034C124.537 212.829 114.168 208.321 102.713 208.321C78.6183 208.354 59 227.864 59 251.848C59 267.805 67.7887 281.623 80.6921 289.222C79.8362 293.861 79.2767 298.533 79.2767 303.337C79.2437 367.656 158.408 420 255.677 420C352.979 420 432.11 367.656 432.11 303.337C432.11 298.829 431.617 294.388 430.86 290.012C444.553 282.643 454 268.397 454 251.848ZM170.522 281.721C170.522 267.443 182.207 255.796 196.559 255.796C210.91 255.796 222.563 267.41 222.563 281.721C222.563 296 210.877 307.614 196.559 307.614C182.207 307.646 170.522 296.033 170.522 281.721ZM319.634 358.543C306.533 371.571 285.927 377.921 256.697 377.921L256.467 377.888L256.237 377.921C227.007 377.921 206.401 371.571 193.3 358.543C190.897 356.174 190.897 352.292 193.3 349.923C195.67 347.554 199.587 347.554 201.957 349.923C212.655 360.55 230.397 365.748 256.237 365.748L256.467 365.781L256.697 365.748C282.504 365.748 300.279 360.583 310.977 349.923C313.38 347.554 317.231 347.554 319.634 349.923C322.037 352.292 322.037 356.174 319.634 358.543ZM316.54 307.646C302.188 307.646 290.536 296.033 290.536 281.754C290.536 267.476 302.221 255.829 316.54 255.829C330.892 255.829 342.544 267.443 342.544 281.754C342.544 296.033 330.892 307.646 316.54 307.646Z"></path>
</svg>